# xmcd
#
# Track frame offsets:
#	150
#	18984
#	43143
#	60990
#	83268
#	110347
#	136414
#	156200
#	179822
#	200422
#
# Disc length: 2931 seconds
#
# Revision: 2305185659
# Processed by: cddbd v1.5.2PL0 Copyright (c) Steve Scherf et al.
# Submitted via: EZCDAudioConverter 8.0.2.1
#
DISCID=7d0b710a
DTITLE=Quang Linh, Hạnh Nguyên - Bài Ca Dao Cho Em
DYEAR=2002
DGENRE=Classical Period
TTITLE0=Quang Linh, Hạnh Nguyên - Bài Ca Dao Cho Em
TTITLE1=Hạnh Nguyên - Quê em mùa nước lũ
TTITLE2=Quang Linh - Hoa dẻ
TTITLE3=Hạnh Nguyên - Mặn nồng lý tình ta
TTITLE4=Quang Linh - Thương em miền nước lũ
TTITLE5=Hạnh Nguyên - Còn thương rau đắng mọc sau hè
TTITLE6=Quang Linh - Tình quê
TTITLE7=Hạnh Nguyên - Chị và em
TTITLE8=Quang Linh - Kẻ đi tìm mộng
TTITLE9=Hạnh Nguyên - Duyên dáng áo hoa
EXTD=
EXTT0=
EXTT1=
EXTT2=
EXTT3=
EXTT4=
EXTT5=
EXTT6=
EXTT7=
EXTT8=
EXTT9=
PLAYORDER=
